<svg width="38" height="23" viewBox="0 0 38 23" fill="none" xmlns="http://www.w3.org/2000/svg">
<path d="M8.9375 13.0156H3.09375L3.0625 9.79688H7.96875C8.83333 9.79688 9.54167 9.6875 10.0938 9.46875C10.6458 9.23958 11.0573 8.91146 11.3281 8.48438C11.6094 8.04688 11.75 7.51562 11.75 6.89062C11.75 6.18229 11.6146 5.60938 11.3438 5.17188C11.0833 4.73438 10.6719 4.41667 10.1094 4.21875C9.55729 4.02083 8.84375 3.92188 7.96875 3.92188H4.71875V23H0.03125V0.25H7.96875C9.29167 0.25 10.474 0.375 11.5156 0.625C12.5677 0.875 13.4583 1.25521 14.1875 1.76562C14.9167 2.27604 15.474 2.92188 15.8594 3.70312C16.2448 4.47396 16.4375 5.39062 16.4375 6.45312C16.4375 7.39062 16.224 8.25521 15.7969 9.04688C15.3802 9.83854 14.7188 10.4844 13.8125 10.9844C12.9167 11.4844 11.7448 11.7604 10.2969 11.8125L8.9375 13.0156ZM8.73438 23H1.8125L3.64062 19.3438H8.73438C9.55729 19.3438 10.2292 19.2135 10.75 18.9531C11.2708 18.6823 11.6562 18.3177 11.9062 17.8594C12.1562 17.401 12.2812 16.875 12.2812 16.2812C12.2812 15.6146 12.1667 15.0365 11.9375 14.5469C11.7188 14.0573 11.3646 13.6823 10.875 13.4219C10.3854 13.151 9.73958 13.0156 8.9375 13.0156H4.42188L4.45312 9.79688H10.0781L11.1562 11.0625C12.5417 11.0417 13.6562 11.2865 14.5 11.7969C15.3542 12.2969 15.974 12.9479 16.3594 13.75C16.7552 14.5521 16.9531 15.4115 16.9531 16.3281C16.9531 17.7865 16.6354 19.0156 16 20.0156C15.3646 21.0052 14.4323 21.75 13.2031 22.25C11.9844 22.75 10.4948 23 8.73438 23ZM29.375 13.0156H23.5312L23.5 9.79688H28.4062C29.2708 9.79688 29.9792 9.6875 30.5312 9.46875C31.0833 9.23958 31.4948 8.91146 31.7656 8.48438C32.0469 8.04688 32.1875 7.51562 32.1875 6.89062C32.1875 6.18229 32.0521 5.60938 31.7812 5.17188C31.5208 4.73438 31.1094 4.41667 30.5469 4.21875C29.9948 4.02083 29.2812 3.92188 28.4062 3.92188H25.1562V23H20.4688V0.25H28.4062C29.7292 0.25 30.9115 0.375 31.9531 0.625C33.0052 0.875 33.8958 1.25521 34.625 1.76562C35.3542 2.27604 35.9115 2.92188 36.2969 3.70312C36.6823 4.47396 36.875 5.39062 36.875 6.45312C36.875 7.39062 36.6615 8.25521 36.2344 9.04688C35.8177 9.83854 35.1562 10.4844 34.25 10.9844C33.3542 11.4844 32.1823 11.7604 30.7344 11.8125L29.375 13.0156ZM29.1719 23H22.25L24.0781 19.3438H29.1719C29.9948 19.3438 30.6667 19.2135 31.1875 18.9531C31.7083 18.6823 32.0938 18.3177 32.3438 17.8594C32.5938 17.401 32.7188 16.875 32.7188 16.2812C32.7188 15.6146 32.6042 15.0365 32.375 14.5469C32.1562 14.0573 31.8021 13.6823 31.3125 13.4219C30.8229 13.151 30.1771 13.0156 29.375 13.0156H24.8594L24.8906 9.79688H30.5156L31.5938 11.0625C32.9792 11.0417 34.0938 11.2865 34.9375 11.7969C35.7917 12.2969 36.4115 12.9479 36.7969 13.75C37.1927 14.5521 37.3906 15.4115 37.3906 16.3281C37.3906 17.7865 37.0729 19.0156 36.4375 20.0156C35.8021 21.0052 34.8698 21.75 33.6406 22.25C32.4219 22.75 30.9323 23 29.1719 23Z" fill="white"/>
</svg>
